<svg width="14" height="13" viewBox="0 0 14 13" fill="none" xmlns="http://www.w3.org/2000/svg">
<path d="M14 4.33333C14 5.3719 13.7501 6.24931 13.2503 6.96556C12.7621 7.68182 11.9195 8.2011 10.7223 8.52342C10.8618 8.71442 10.9606 8.86364 11.0187 8.97107L13.8431 13H9.10087C8.58946 12.0211 7.78165 10.6364 6.67746 8.84573H4.11457V13H0C0.0929846 10.6841 0.139477 8.51745 0.139477 6.5C0.139477 4.48255 0.0929846 2.31589 0 0H4.11457V0.0179057H7.68867C10.0365 0.0179057 11.6754 0.405877 12.6052 1.18182C13.5351 1.95776 14 3.00826 14 4.33333ZM4.11457 3.45592V5.49725H6.46824C7.45621 5.49725 8.20008 5.4674 8.69987 5.40771C9.21129 5.33609 9.56579 5.22865 9.76339 5.0854C9.96098 4.94215 10.0598 4.73324 10.0598 4.45868C10.0598 4.19605 9.96679 3.99311 9.78082 3.84986C9.59485 3.70661 9.24616 3.60514 8.73474 3.54545C8.22333 3.48577 7.46783 3.45592 6.46824 3.45592H4.11457Z" fill="#F75184"/>
</svg>
